# xmcd
#
# Track frame offsets: 
#        150
#        13836
#        28294
#        45400
#        58033
#        72233
#        88484
#        97691
#        119942
#        142469
#        160326
#        174820
#        184682
#        198945
#        214920
#        246222
#        262884
#
# Disc length: 3688 seconds
#
# Revision: 0
# Processed by: cddbd v1.5.2PL0 Copyright (c) Steve Scherf et al.
# Submitted via: ExactAudioCopy v1.0b1
#
DISCID=fc0e6611
DTITLE=Rory Block - Live Oak Festival Jun 20 1992
DYEAR=1992
DGENRE=Blues
TTITLE0=Hawkin's Blues
TTITLE1=Maggie Campbell
TTITLE2=Terraplane Blues
TTITLE3=Big Road Blues
TTITLE4=Move Back to the Woods
TTITLE5=Rolling Log
TTITLE6=Foreign Lander
TTITLE7=Lovin' Whiskey
TTITLE8=Faithless World
TTITLE9=Sisters
TTITLE10=Road to Mexico
TTITLE11=Intro to Silver Wings
TTITLE12=Silver Wings
TTITLE13=Future Blues
TTITLE14=Mama's Blues
TTITLE15=Turning Point
TTITLE16=Walking Blues
EXTD=
EXTT0=
EXTT1=
EXTT2=
EXTT3=
EXTT4=
EXTT5=
EXTT6=
EXTT7=
EXTT8=
EXTT9=
EXTT10=
EXTT11=
EXTT12=
EXTT13=
EXTT14=
EXTT15=
EXTT16=
PLAYORDER=
